<?xml version="1.0" standalone="no"?>
<!DOCTYPE svg PUBLIC "-//W3C//DTD SVG 20010904//EN"
 "http://www.w3.org/TR/2001/REC-SVG-20010904/DTD/svg10.dtd">
<svg version="1.0" xmlns="http://www.w3.org/2000/svg"
 width="1280.000000pt" height="1224.000000pt" viewBox="0 0 1280.000000 1224.000000"
 preserveAspectRatio="xMidYMid meet">
<metadata>
Created by potrace 1.15, written by Peter Selinger 2001-2017
</metadata>
<g transform="translate(0.000000,1224.000000) scale(0.100000,-0.100000)"
fill="#000000" stroke="none">
<path d="M6310 12154 c-198 -179 -451 -395 -600 -515 -85 -69 -205 -166 -267
-216 -401 -326 -760 -495 -1163 -547 -352 -46 -1009 -46 -1332 -1 -37 5 -38 4
-38 -25 0 -16 -3 -30 -7 -30 -5 0 -21 -10 -36 -23 l-28 -22 36 -46 36 -46 -11
-249 c-19 -453 -42 -675 -82 -781 -65 -175 -225 -356 -388 -438 -99 -50 -160
-64 -404 -95 -132 -16 -371 -45 -531 -65 -388 -48 -355 -40 -348 -81 4 -27 1
-38 -13 -49 -18 -13 -18 -15 8 -42 24 -25 31 -47 48 -148 72 -436 67 -565 -40
-1000 -58 -236 -177 -633 -227 -760 -114 -290 -398 -689 -792 -1115 -96 -103
-97 -106 -93 -147 4 -41 5 -43 38 -43 30 0 63 -27 312 -252 152 -139 327 -297
387 -350 154 -136 254 -253 388 -458 164 -250 271 -479 327 -700 59 -234 158
-902 231 -1564 13 -119 17 -107 -45 -151 -18 -13 -18 -14 3 -44 l22 -31 43 30
43 29 104 -45 c223 -97 437 -166 781 -252 293 -74 427 -143 602 -312 101 -97
394 -443 507 -600 171 -236 583 -855 582 -875 0 -5 -4 -17 -7 -25 -5 -12 3
-19 28 -28 29 -11 39 -11 58 1 26 17 336 143 475 193 287 104 909 215 1710
304 283 31 695 -72 1067 -268 190 -100 253 -142 263 -175 8 -29 12 -31 56 -32
l48 -1 83 96 c112 129 238 293 325 423 152 228 293 398 536 646 459 468 714
623 1340 810 193 57 567 151 605 151 14 0 39 -9 55 -20 17 -11 33 -20 37 -20
4 0 17 18 28 39 17 34 18 49 11 106 -19 163 20 370 116 610 262 657 349 798
574 932 152 90 384 286 728 614 181 173 198 186 223 179 24 -7 27 -5 33 18 13
63 13 72 -4 94 -34 44 -298 434 -387 573 -180 278 -297 487 -368 651 -112 264
-198 606 -263 1049 -31 215 -37 446 -15 575 44 248 142 563 264 845 38 88 70
164 71 168 1 4 -74 43 -168 86 -303 139 -501 244 -667 355 -331 222 -660 656
-823 1086 -81 215 -255 742 -370 1123 -14 48 -29 87 -33 87 -4 0 -47 -14 -95
-30 -210 -72 -352 -93 -766 -109 -317 -13 -875 8 -1066 40 -117 20 -209 51
-374 125 -190 87 -234 110 -386 209 -197 128 -421 295 -717 537 -86 70 -163
128 -170 128 -7 0 -56 -39 -108 -86z m350 -201 c287 -229 613 -460 780 -551
113 -61 334 -160 430 -193 167 -56 391 -77 890 -86 451 -8 795 14 984 62 50
12 93 21 94 20 2 -2 -73 -102 -166 -222 l-170 -218 -89 -39 c-300 -134 -397
-176 -565 -242 -367 -145 -572 -204 -711 -204 -162 0 -379 82 -597 227 -138
92 -433 314 -590 446 -212 177 -445 431 -507 551 -11 22 -23 114 -39 321 l-24
290 22 17 c22 16 24 15 78 -31 30 -26 111 -92 180 -148z m-350 80 c0 -5 9
-126 21 -270 l22 -262 -49 -58 c-178 -208 -311 -338 -693 -676 -230 -203 -581
-375 -946 -462 -569 -136 -1105 -126 -1295 25 l-39 31 -3 -41 -3 -40 -165 211
c-138 176 -166 217 -170 251 -4 36 -8 41 -34 44 -15 2 -31 6 -35 10 -3 3 19 4
49 0 471 -56 1161 -40 1501 34 209 45 476 158 684 290 123 77 283 196 440 326
66 54 172 140 235 191 63 50 194 161 290 246 167 148 190 167 190 150z m90
-1258 c17 -302 31 -567 32 -587 2 -34 -6 -47 -93 -145 -52 -60 -130 -151 -172
-203 -137 -168 -153 -184 -258 -249 -201 -125 -621 -324 -850 -403 -87 -29
-106 -32 -253 -36 -192 -5 -358 13 -589 65 l-67 15 -365 463 c-309 393 -397
515 -373 515 2 0 28 -9 58 -19 241 -85 646 -79 1106 15 430 87 789 253 1075
496 216 182 445 397 569 532 132 144 135 147 142 119 4 -15 21 -275 38 -578z
m151 455 c92 -104 264 -269 389 -371 149 -122 447 -344 566 -422 324 -213 575
-274 844 -207 167 42 529 176 821 304 68 30 125 53 127 51 2 -1 -2 -31 -8 -66
-11 -57 -35 -99 -296 -504 l-284 -442 -92 -26 c-359 -101 -519 -130 -708 -131
-155 0 -229 9 -410 54 -240 59 -447 147 -593 251 -166 118 -397 386 -397 460
0 34 -57 1021 -64 1119 l-5 65 22 -30 c12 -16 52 -64 88 -105z m3413 -37 c63
-222 270 -851 355 -1082 123 -329 337 -658 593 -912 201 -199 429 -342 887
-556 74 -34 128 -65 120 -68 -56 -20 -1093 -375 -1096 -375 -3 0 11 20 31 44
l36 44 -102 80 c-513 396 -724 636 -1075 1222 -218 364 -306 546 -338 695 -22
107 -20 147 14 200 39 61 554 725 563 725 4 0 9 -8 12 -17z m-6794 -839 l175
-224 12 -73 c42 -246 54 -528 28 -652 -74 -347 -394 -838 -676 -1038 -165
-117 -423 -211 -639 -234 -54 -5 -59 -8 -62 -31 -3 -23 -47 21 -348 343 -434
464 -417 445 -421 475 -5 29 -55 21 521 90 475 56 548 68 641 106 237 96 459
349 514 587 22 97 44 328 57 615 6 144 14 262 17 261 3 0 85 -101 181 -225z
m6155 -179 c31 -102 89 -222 223 -455 256 -447 460 -743 655 -946 97 -102 317
-296 479 -422 l97 -76 -42 -57 c-37 -52 -62 -70 -222 -167 -99 -60 -250 -151
-335 -204 l-156 -95 -74 32 c-278 116 -377 191 -689 516 -225 234 -265 285
-312 400 -80 197 -128 535 -115 814 l6 115 222 347 c220 343 223 346 231 312
5 -19 19 -70 32 -114z m-2846 -605 c17 -250 34 -472 37 -492 5 -36 3 -39 -141
-185 l-146 -148 -79 190 c-44 105 -118 267 -165 360 -46 94 -86 175 -87 182
-2 6 40 40 92 75 62 41 110 82 138 118 100 128 307 368 313 362 3 -4 20 -212
38 -462z m-2698 4 l306 -389 -8 -120 c-46 -645 -170 -1100 -358 -1307 -99
-109 -245 -189 -436 -236 -108 -27 -229 -46 -255 -39 -12 3 -228 119 -481 258
-452 249 -459 253 -459 283 l0 31 95 18 c190 35 397 116 537 210 218 146 456
440 608 752 138 281 168 444 140 740 -5 55 -12 127 -16 160 -4 50 -3 57 8 44
7 -8 151 -190 319 -405z m2789 360 c61 -79 234 -239 321 -296 106 -70 175
-105 314 -156 260 -97 426 -132 657 -139 208 -6 281 3 578 78 107 26 196 47
197 45 3 -2 -503 -799 -525 -826 -2 -3 -88 -9 -190 -14 -223 -11 -346 -2 -644
48 -231 39 -316 64 -421 127 -82 48 -253 213 -261 250 -3 13 -19 220 -36 459
-17 239 -32 443 -34 453 -6 28 7 19 44 -29z m2219 -930 c39 -228 104 -401 194
-519 81 -105 486 -507 582 -579 76 -55 264 -158 354 -193 22 -8 -17 -33 -352
-222 -342 -193 -378 -211 -399 -200 -41 22 -158 102 -158 108 0 3 100 37 221
76 200 62 230 75 308 127 90 60 167 121 141 113 -8 -3 -106 -20 -216 -40 -204
-35 -243 -45 -481 -130 l-133 -47 -97 65 c-166 109 -289 220 -354 320 -57 87
-132 311 -197 585 l-29 123 245 382 c134 210 265 414 291 452 l46 70 6 -186
c4 -110 15 -234 28 -305z m-2919 439 c0 -40 63 -273 105 -389 51 -140 111
-414 93 -426 -291 -193 -549 -271 -938 -285 -165 -5 -253 3 -308 29 -24 12
-591 741 -592 761 0 5 4 6 9 2 6 -3 76 -17 158 -31 199 -34 432 -43 560 -20
145 25 513 177 788 326 61 32 113 59 118 59 4 1 7 -11 7 -26z m-1424 -728
c252 -330 280 -370 286 -413 16 -117 4 -327 -28 -487 -9 -44 -17 -81 -18 -82
-1 -1 -26 4 -56 12 -80 21 -81 19 -18 -25 l57 -41 -15 -41 c-73 -209 -222
-369 -449 -483 -130 -66 -224 -89 -335 -82 -74 4 -77 5 -385 166 -170 90 -313
166 -317 170 -5 4 31 15 79 25 292 61 499 190 618 386 138 228 244 649 280
1115 6 88 14 145 19 145 2 0 129 -164 282 -365z m2105 -270 l20 -370 -108
-103 c-59 -57 -116 -108 -125 -113 -16 -9 -17 0 -12 133 6 149 -5 260 -58 550
l-21 117 139 134 139 134 3 -56 c1 -31 11 -222 23 -426z m130 392 c143 -131
285 -190 569 -237 317 -52 453 -64 638 -54 89 5 162 5 162 1 0 -4 -83 -160
-185 -346 l-185 -338 -103 -31 c-143 -43 -246 -63 -363 -69 -85 -5 -113 -2
-170 15 -89 27 -203 102 -310 205 l-86 82 -18 345 c-11 190 -21 378 -23 418
-2 39 -2 72 0 72 3 0 36 -29 74 -63z m-4992 -536 l321 -345 0 -70 c-1 -354
-177 -842 -453 -1256 -152 -228 -342 -456 -544 -651 l-130 -126 79 -61 79 -61
-368 5 c-202 3 -405 7 -451 10 l-82 6 55 61 c353 393 585 702 725 970 109 208
295 825 372 1232 30 161 30 381 -1 578 -11 76 -21 141 -21 145 0 10 70 -63
419 -437z m4431 192 c8 -45 9 -120 5 -223 -6 -135 -3 -178 19 -338 14 -101 26
-190 26 -197 0 -16 -135 -101 -215 -134 -54 -23 -73 -26 -185 -26 -89 1 -145
6 -195 19 -139 37 -125 24 -403 350 -142 166 -261 306 -264 311 -4 6 56 10
165 10 228 1 449 33 625 91 93 31 279 120 347 167 28 19 53 35 56 36 4 1 12
-29 19 -66z m2035 -155 c47 -183 98 -335 146 -436 58 -121 202 -266 387 -391
34 -23 62 -43 62 -45 0 -2 -30 -16 -66 -30 -110 -44 -347 -154 -417 -193 -36
-20 -98 -65 -138 -99 l-72 -64 -27 20 c-16 11 -69 62 -119 112 -149 151 -189
258 -179 484 l5 111 189 343 c103 189 189 339 191 334 1 -5 18 -71 38 -146z
m3708 15 c-183 -462 -260 -825 -233 -1110 32 -357 107 -747 200 -1044 112
-358 266 -636 719 -1302 73 -107 114 -176 104 -173 -23 7 -225 53 -483 111
-191 43 -439 113 -440 125 0 3 49 30 109 60 l109 55 -265 275 c-507 525 -545
568 -617 689 -129 218 -302 580 -436 916 -93 234 -104 281 -104 445 0 146 17
251 61 375 28 79 115 258 141 293 13 17 151 68 592 221 316 109 580 199 586
200 7 1 -13 -61 -43 -136z m-6759 -448 c186 -218 256 -307 256 -325 0 -25 -54
-247 -62 -255 -2 -3 -21 18 -42 45 -21 27 -77 89 -124 138 -93 95 -159 134
-305 182 -54 18 -67 25 -62 38 21 55 46 261 46 381 0 132 0 134 19 115 10 -10
133 -154 274 -319z m5467 33 c-124 -270 -157 -545 -96 -783 53 -204 363 -886
527 -1162 68 -113 146 -201 591 -662 l227 -235 -97 -51 -97 -52 -376 128
c-206 70 -402 137 -435 149 -33 12 -89 29 -125 38 l-65 17 -340 345 c-439 445
-438 443 -455 785 -5 105 -15 246 -21 315 -23 258 25 471 177 777 l65 132 277
170 c152 93 278 170 279 170 1 1 -15 -36 -36 -81z m-4016 -1001 c-28 -24 -106
-70 -111 -65 -2 3 -15 65 -29 140 -25 136 -63 307 -90 408 -10 35 -15 101 -15
186 l0 131 58 46 c31 25 89 75 127 110 l70 64 5 -501 c5 -492 5 -501 -15 -519z
m255 879 c86 -63 191 -112 273 -127 88 -16 250 0 413 41 65 16 119 28 121 27
2 -3 -499 -903 -510 -913 -11 -11 -244 16 -309 36 -36 11 -77 30 -92 41 -23
18 -27 27 -22 54 5 23 1 39 -14 58 -19 24 -20 39 -20 472 l0 448 48 -45 c27
-25 77 -66 112 -92z m-4265 -161 l436 -239 -3 -316 -3 -315 -33 -95 c-102
-296 -354 -575 -729 -808 -60 -37 -141 -83 -181 -102 -40 -19 -72 -37 -72 -41
0 -4 14 -12 30 -19 17 -7 30 -15 30 -19 0 -3 -190 0 -422 8 l-423 14 -82 65
c-46 36 -83 68 -83 70 0 3 58 64 128 136 254 260 477 554 632 836 171 309 280
642 311 953 7 65 15 116 20 115 4 -2 204 -111 444 -243z m5130 -208 c29 -112
63 -165 192 -297 143 -145 145 -120 -17 -241 -152 -114 -234 -154 -530 -255
-15 -5 -137 83 -152 111 -5 8 7 22 35 41 38 26 40 29 19 32 -13 2 -22 7 -20
11 2 4 102 184 223 400 l220 393 8 -68 c4 -38 14 -95 22 -127z m-2818 110 c54
-41 142 -118 194 -173 52 -54 118 -122 147 -151 l54 -51 -31 -72 c-49 -117
-110 -210 -185 -285 -106 -105 -224 -153 -350 -142 -52 4 -100 23 -331 132
-148 70 -295 139 -325 153 l-54 25 85 23 c115 30 186 63 299 138 166 111 280
245 347 407 15 38 33 69 39 69 6 0 56 -33 111 -73z m1326 -39 c4 -62 7 -192 7
-288 0 -152 14 -311 36 -414 l6 -29 -117 6 c-78 4 -122 10 -131 19 -17 18
-465 710 -462 714 2 1 32 -5 68 -13 37 -9 114 -16 180 -17 137 -1 210 19 323
89 40 24 75 44 78 45 3 0 9 -51 12 -112z m3693 -19 c-118 -255 -167 -490 -146
-699 6 -61 15 -203 20 -315 12 -271 33 -354 117 -483 20 -31 170 -191 332
-356 241 -243 290 -297 266 -292 -16 3 -182 37 -367 75 l-337 68 -108 100
c-59 54 -146 132 -193 172 -189 162 -253 270 -296 501 -21 112 -24 432 -5 570
20 149 53 345 60 357 7 13 693 404 698 399 2 -2 -17 -45 -41 -97z m-4339 -144
c50 -77 120 -186 157 -243 36 -57 58 -98 49 -93 -10 5 -61 44 -113 85 -52 41
-133 96 -178 122 -70 39 -83 50 -79 68 6 30 47 188 53 205 6 19 5 20 111 -144z
m-2132 -160 c376 -197 344 -162 325 -351 -36 -368 -242 -832 -461 -1038 -112
-106 -66 -98 -609 -106 -457 -6 -476 -5 -508 13 -18 11 -32 20 -30 22 2 1 46
28 98 60 379 232 627 486 760 779 66 146 72 183 77 504 3 161 9 292 14 290 5
-2 155 -79 334 -173z m5623 95 c39 -25 70 -49 69 -54 -2 -4 -173 -89 -382
-187 l-379 -179 -48 32 c-26 18 -48 35 -47 38 0 3 25 25 56 50 31 25 120 96
197 158 162 131 166 133 306 183 101 36 106 37 131 21 14 -10 58 -37 97 -62z
m87 -221 c-65 -364 -61 -754 11 -969 56 -167 110 -238 329 -430 83 -72 151
-135 153 -139 1 -4 -136 18 -306 49 -289 52 -312 58 -348 87 -64 50 -147 87
-431 195 -49 18 -57 26 -123 125 -126 187 -163 284 -163 415 0 103 28 214 77
311 l41 81 385 182 c212 100 386 181 387 180 2 -1 -4 -40 -12 -87z m-3710 -4
c101 -75 164 -147 225 -258 54 -99 98 -144 173 -178 15 -7 27 -15 27 -19 0 -4
-18 -35 -40 -68 l-40 -62 -237 0 -238 0 -215 69 c-150 48 -209 71 -195 76 171
58 313 203 410 417 23 51 43 84 49 81 6 -4 43 -30 81 -58z m-1196 -266 c212
-100 388 -183 390 -186 11 -9 1 -195 -13 -257 -35 -147 -164 -355 -312 -503
-65 -65 -76 -70 -181 -66 -22 1 -14 -11 20 -31 l32 -19 -32 -7 c-18 -4 -211
-11 -430 -15 l-397 -7 68 72 c232 247 435 732 453 1088 3 61 8 112 11 112 2 0
178 -82 391 -181z m4036 -49 c-51 -102 -77 -201 -83 -321 -4 -91 -1 -117 18
-180 23 -78 76 -189 120 -254 50 -75 62 -75 -129 4 -131 55 -278 81 -453 81
l-88 0 0 38 c0 20 5 82 12 138 l11 101 -39 35 c-21 19 -52 46 -68 60 l-28 24
73 38 c166 87 472 278 549 344 l35 30 52 -36 51 -36 -33 -66z m-1653 28 c3
-76 2 -85 -21 -110 -28 -32 -24 -35 -79 63 l-32 56 58 36 c31 19 60 35 64 36
3 1 8 -36 10 -81z m116 53 l34 -17 -36 -28 -36 -27 0 23 c0 13 -3 33 -6 46 -7
26 0 27 44 3z m232 -56 c0 -3 -7 -16 -15 -28 -14 -22 -12 -68 10 -168 l6 -26
-78 5 c-43 2 -84 9 -90 14 -33 27 0 158 48 192 22 15 119 24 119 11z m120 -12
c0 -5 -11 -25 -24 -46 -25 -41 -36 -34 -36 24 0 26 4 29 30 29 17 0 30 -3 30
-7z m-883 -51 l72 5 25 -73 24 -73 -48 38 c-31 25 -77 47 -132 64 -45 14 -92
33 -103 41 -17 13 -14 13 35 4 30 -6 87 -8 127 -6z m1002 -61 l54 -49 -24 -12
c-13 -7 -53 -35 -87 -63 -51 -40 -66 -47 -73 -36 -24 37 -21 59 22 134 24 41
46 75 49 74 3 0 29 -22 59 -48z m-2307 -122 c90 -28 167 -55 173 -60 5 -5 -9
-9 -36 -9 -66 0 -288 -29 -310 -40 -10 -6 -19 -10 -21 -10 -2 0 -2 41 0 91 3
73 6 90 18 85 7 -3 87 -28 176 -57z m1215 -28 c67 -29 130 -59 140 -67 17 -14
17 -15 -1 -29 -30 -23 -77 -18 -174 16 -48 17 -112 38 -142 46 -30 8 -56 16
-58 18 -1 1 10 23 25 48 27 44 29 45 58 32 17 -6 85 -36 152 -64z m1416 -114
l69 -62 -13 -124 -13 -123 -46 5 c-63 8 -168 51 -213 88 -43 35 -97 123 -97
156 0 13 11 30 26 39 27 18 192 83 209 83 6 0 41 -28 78 -62z m-1753 -87 c313
-12 350 -16 350 -38 -1 -9 -7 -28 -14 -42 l-14 -24 -209 2 c-114 1 -257 5
-318 8 -107 6 -111 5 -148 -20 -21 -14 -39 -26 -41 -26 -2 0 6 28 17 63 11 34
22 68 23 75 4 15 32 15 354 2z m-444 -42 c-23 -75 -107 -234 -160 -300 -28
-36 -55 -73 -61 -82 -8 -13 -84 -27 -400 -70 -214 -29 -392 -52 -394 -50 -2 2
8 13 22 24 35 28 180 208 233 291 24 36 55 95 69 130 l27 65 97 16 c66 11 171
16 338 17 l242 1 -13 -42z m1947 -305 c37 -27 75 -42 177 -66 l130 -32 0 -65
0 -66 -99 -46 -100 -46 -57 102 c-65 115 -165 264 -194 291 -64 58 25 13 143
-72z m-1659 30 c-4 -21 -23 -83 -42 -138 l-34 -100 6 -156 c3 -86 8 -162 11
-170 3 -9 -9 -22 -34 -36 -22 -13 -42 -23 -44 -23 -2 0 3 35 10 78 22 123 8
172 -87 297 -27 36 -50 70 -50 74 0 18 122 186 143 198 12 7 46 12 75 13 l53
0 -7 -37z m2281 -168 c121 -14 303 -35 404 -46 184 -20 207 -25 230 -52 9 -12
-1 -22 -60 -57 -116 -69 -260 -183 -348 -276 -67 -71 -91 -105 -130 -188 -27
-55 -57 -123 -67 -151 -9 -27 -19 -52 -21 -54 -11 -14 -422 438 -451 496 -41
81 -46 75 88 134 l121 53 -3 83 c-2 51 1 83 7 83 6 0 109 -12 230 -25z m-2885
-130 c-37 -77 -175 -295 -187 -295 -2 0 -11 6 -19 14 -8 8 -105 75 -216 148
l-202 133 205 28 c112 15 260 35 329 45 69 10 126 17 128 16 2 -1 -16 -41 -38
-89z m2207 -56 c24 -33 41 -64 38 -68 -5 -9 -145 -55 -150 -49 -3 3 -55 253
-55 264 0 2 28 -17 62 -42 34 -25 81 -72 105 -105z m-1851 20 c53 -80 60 -114
45 -201 -21 -118 -29 -136 -74 -164 -23 -14 -143 -130 -267 -258 -124 -129
-228 -234 -231 -235 -3 0 0 27 8 62 7 34 18 104 24 156 14 111 64 230 150 352
202 286 274 378 286 367 7 -6 34 -41 59 -79z m3332 55 c30 -6 31 -8 25 -49 -4
-36 -2 -43 13 -47 11 -2 218 -40 461 -84 244 -43 443 -82 443 -85 0 -3 -17
-13 -37 -23 -56 -27 -274 -168 -390 -252 -128 -94 -252 -210 -307 -288 -58
-82 -296 -541 -361 -696 -29 -69 -55 -125 -57 -125 -6 0 -658 585 -658 590 0
12 65 135 72 135 4 0 19 -16 34 -36 64 -83 168 -86 144 -4 -12 42 -28 70 -76
132 l-44 57 55 133 c64 155 98 207 197 304 95 93 194 167 335 250 91 54 111
69 102 80 -13 16 -1 18 49 8z m-7751 -50 l221 -6 199 -160 c109 -88 270 -223
358 -302 88 -78 214 -188 280 -245 405 -350 628 -584 674 -706 49 -130 56
-200 56 -535 -1 -262 -5 -348 -23 -510 -13 -107 -25 -202 -28 -211 -3 -12 5
-20 27 -28 26 -9 30 -13 19 -26 -15 -18 -900 -638 -904 -633 -1 1 -13 93 -25
203 -74 664 -173 1295 -235 1502 -83 275 -269 617 -474 871 -43 52 -83 103
-90 113 -8 10 -71 69 -140 131 -162 144 -548 492 -587 530 l-30 28 240 -5
c132 -3 340 -8 462 -11z m3564 -144 c129 -84 241 -161 250 -172 14 -18 11 -28
-50 -151 -63 -125 -112 -259 -125 -338 -4 -20 -13 -105 -21 -190 l-15 -154
-142 -142 c-79 -79 -146 -143 -149 -143 -4 0 -9 53 -11 118 -4 97 -10 133 -36
209 -113 331 -412 699 -822 1007 l-97 73 141 6 c78 4 254 7 391 8 153 0 283 6
335 14 47 7 92 12 101 10 9 -1 121 -71 250 -155z m2398 -80 c0 -19 -75 -76
-112 -85 -26 -7 -28 -5 -22 16 3 13 14 68 25 121 11 53 27 114 36 135 l16 38
29 -105 c15 -58 28 -112 28 -120z m-4991 193 l263 -6 162 -100 c384 -236 595
-391 727 -534 303 -328 427 -680 406 -1153 -8 -176 -30 -338 -48 -355 -7 -7
-147 -119 -311 -248 -282 -222 -300 -235 -324 -224 -24 10 -25 15 -19 62 25
196 37 360 43 555 11 414 -31 638 -144 779 -126 156 -315 338 -678 653 -104
91 -225 197 -269 236 -43 40 -144 125 -225 191 -80 65 -157 128 -171 140 l-25
22 175 -5 c96 -3 293 -9 438 -13z m1290 -32 c473 -322 847 -762 943 -1107 28
-101 31 -244 7 -325 -17 -54 -23 -60 -318 -322 -165 -147 -302 -267 -305 -267
-4 0 -4 8 -1 18 3 9 10 87 16 173 37 544 -103 947 -450 1299 -58 59 -138 133
-179 165 -74 58 -313 219 -491 331 l-95 59 225 5 c124 3 307 7 408 8 l183 2
57 -39z m4163 -177 c55 -73 210 -260 377 -455 l93 -109 -36 -77 -35 -77 -303
308 c-251 256 -305 316 -319 354 -26 74 -26 74 65 104 45 14 87 25 93 25 6 -1
36 -34 65 -73z m2838 -83 l393 -79 41 -40 c23 -23 39 -43 37 -45 -3 -2 -48
-22 -100 -46 -123 -55 -330 -168 -439 -239 -138 -91 -198 -160 -365 -417 -353
-543 -452 -739 -486 -960 -6 -38 -12 -70 -13 -72 -2 -1 -158 120 -347 268
-190 149 -353 276 -362 283 -16 12 -14 22 33 132 50 119 255 526 332 659 74
129 214 255 462 421 212 141 365 226 395 219 14 -3 202 -41 419 -84z m-3256
-63 c9 -35 23 -160 32 -278 l17 -215 -36 -153 c-26 -110 -36 -175 -36 -235 l0
-83 -67 -118 c-37 -65 -69 -112 -72 -105 -3 8 -41 165 -86 349 l-81 335 -34
-3 c-19 -1 -36 -4 -38 -7 -2 -2 34 -163 81 -357 47 -194 84 -355 82 -357 -2
-2 -28 10 -57 27 -100 56 -202 85 -320 90 -97 4 -117 1 -217 -27 -61 -18 -154
-47 -206 -66 -52 -19 -95 -31 -95 -27 0 4 39 155 86 335 47 181 84 331 81 334
-3 3 -20 6 -38 6 l-33 2 -82 -313 c-45 -172 -84 -315 -87 -318 -2 -3 -17 17
-32 43 -85 146 -205 262 -338 326 -89 43 -376 156 -487 192 -30 10 -57 19 -59
22 -3 2 95 103 216 226 121 122 238 241 259 265 20 24 55 52 76 63 36 18 43
19 114 5 41 -7 76 -15 77 -17 2 -2 14 -28 27 -57 30 -66 96 -134 192 -197 211
-140 276 -145 638 -56 142 36 157 42 183 72 32 38 98 172 118 237 14 47 36 62
88 62 16 0 44 13 66 30 21 17 41 30 45 30 4 0 15 -28 23 -62z m-1383 38 c0
-11 -19 -15 -25 -6 -3 5 1 10 9 10 9 0 16 -2 16 -4z m5595 -231 c209 -71 382
-130 385 -133 3 -3 1 -6 -5 -8 -5 -2 -58 -34 -118 -72 -252 -158 -493 -361
-612 -516 -31 -41 -92 -139 -136 -218 -103 -184 -357 -690 -489 -973 -56 -121
-106 -224 -111 -229 -4 -5 -31 -12 -60 -17 l-51 -8 -305 232 -305 232 5 85
c12 207 106 401 464 952 178 273 228 331 373 426 91 60 417 229 549 285 l63
27 -28 37 c-15 20 -21 34 -13 31 8 -2 185 -62 394 -133z m-3731 -146 c135
-138 246 -252 246 -253 0 -2 -53 -6 -117 -9 -65 -4 -152 -15 -193 -26 -91 -23
-187 -59 -195 -72 -17 -27 -20 2 -8 104 12 112 18 481 7 498 -3 5 -1 9 4 9 5
0 120 -113 256 -251z m-2683 -143 c-25 -105 -33 -122 -65 -153 -20 -19 -36
-31 -36 -26 0 44 119 328 128 305 1 -4 -11 -60 -27 -126z m7513 -47 c193 -44
351 -81 353 -83 2 -1 -92 -93 -209 -204 -328 -309 -528 -474 -681 -563 -85
-50 -198 -159 -255 -247 -81 -126 -228 -446 -353 -772 -64 -165 -99 -340 -99
-491 0 -81 -3 -99 -15 -99 -8 0 -224 125 -481 278 l-466 277 41 8 c23 5 41 12
41 17 0 14 263 567 386 810 135 268 263 504 315 581 117 173 381 397 689 584
l121 73 132 -44 c73 -25 289 -81 481 -125z m-7354 -185 c342 -116 492 -188
588 -279 93 -87 212 -269 212 -322 0 -10 -50 -169 -111 -353 -61 -184 -113
-342 -115 -350 -3 -9 -13 7 -23 36 -54 152 -200 307 -391 416 -169 96 -627
312 -764 360 -36 13 -66 26 -66 29 0 3 68 70 152 149 l151 145 -7 -65 -6 -65
19 25 c11 14 27 57 36 97 16 69 18 73 95 147 44 42 84 76 89 76 5 0 68 -20
141 -46z m3144 -216 c162 -145 295 -266 295 -269 1 -4 -23 -2 -51 3 -29 6
-107 8 -173 5 -201 -8 -334 -64 -456 -193 -90 -96 -189 -211 -291 -339 -156
-197 -171 -223 -234 -400 -24 -68 -45 -113 -48 -105 -3 8 -41 131 -84 274
l-78 259 67 201 c87 261 126 423 134 559 7 104 8 109 38 138 80 75 274 124
504 128 l82 1 295 -262z m-1144 -286 c-6 -32 -21 -90 -34 -128 -23 -68 -24
-68 -35 -41 -6 16 -11 39 -11 53 0 26 78 190 86 181 3 -3 0 -32 -6 -65z m-492
22 c88 -17 262 -97 308 -141 23 -22 36 -51 58 -133 16 -58 32 -114 37 -125 9
-22 199 -650 199 -659 0 -3 -30 14 -67 38 -258 166 -484 256 -642 256 -114 0
-396 -87 -678 -210 -73 -32 -133 -56 -133 -53 0 3 63 199 141 436 88 271 148
438 159 448 22 19 168 74 315 118 153 46 187 49 303 25z m-1973 -152 c180 -76
574 -276 659 -333 201 -137 306 -297 306 -470 0 -77 -4 -91 -94 -332 -124
-332 -276 -730 -279 -734 -2 -1 -27 58 -57 133 -68 174 -192 426 -269 549
-107 171 -200 270 -336 362 -166 111 -488 263 -763 359 -28 10 -51 22 -50 26
2 4 140 129 307 277 l303 270 82 -30 c44 -17 131 -51 191 -77z m3950 53 c38
-8 81 -23 95 -32 59 -39 793 -618 797 -630 3 -8 4 -16 1 -18 -2 -2 -49 3 -103
12 -128 20 -491 23 -585 5 -96 -19 -211 -59 -261 -91 -60 -38 -387 -337 -589
-540 -208 -209 -277 -299 -320 -420 -18 -50 -34 -90 -36 -88 -2 2 -60 167
-129 367 l-125 364 61 170 c67 190 83 220 174 342 176 233 382 458 463 508
133 80 348 100 557 51z m-4575 -682 c163 -66 387 -180 505 -257 164 -107 294
-269 429 -536 71 -139 181 -397 216 -505 l22 -70 -127 -440 c-69 -242 -128
-442 -131 -444 -2 -2 -4 12 -4 31 0 52 -28 189 -57 282 -30 96 -94 230 -150
312 -117 171 -386 414 -777 702 -109 81 -271 201 -358 267 -220 165 -257 191
-381 261 l-107 61 292 231 292 230 100 -35 c56 -19 162 -60 236 -90z m5268
-53 c91 -10 249 -34 300 -46 20 -4 23 -2 17 17 -4 12 -3 20 2 18 5 -2 109 -80
231 -173 143 -109 218 -172 210 -177 -7 -3 -31 -10 -53 -13 -22 -4 -102 -25
-178 -46 -354 -101 -642 -251 -855 -445 -142 -131 -506 -646 -883 -1252 -51
-83 -95 -151 -96 -150 -1 1 -77 236 -169 521 l-168 520 18 85 c23 113 67 217
124 294 60 81 337 357 575 575 225 206 273 234 449 266 90 17 345 20 476 6z
m-2624 -32 c105 -28 342 -148 486 -245 l115 -78 137 -395 c75 -217 137 -400
137 -407 1 -7 -38 6 -91 29 -437 190 -858 332 -1048 353 -112 13 -310 -63
-784 -297 -164 -82 -300 -147 -302 -145 -2 2 74 208 169 457 l172 455 50 24
c87 42 366 157 462 190 249 85 354 98 497 59z m-3551 -349 c104 -52 228 -133
337 -219 47 -36 177 -133 290 -215 455 -329 759 -589 891 -765 164 -218 255
-546 222 -807 -5 -39 -6 -70 -1 -67 18 11 4 -27 -103 -289 -61 -150 -114 -280
-118 -291 -6 -14 -53 51 -215 294 -270 408 -407 596 -585 810 -376 450 -518
549 -941 652 -171 41 -330 87 -478 138 -118 41 -322 124 -322 131 0 3 190 139
423 302 233 163 443 312 468 331 24 19 45 35 47 35 1 1 39 -18 85 -40z m7058
-58 c13 -10 222 -136 463 -280 242 -144 441 -263 443 -265 2 -1 -59 -18 -134
-36 -395 -94 -810 -233 -1032 -345 -211 -106 -467 -311 -751 -601 -236 -241
-356 -387 -540 -654 -97 -141 -244 -332 -336 -434 -23 -26 -27 -27 -41 -14
-14 14 -223 666 -223 696 0 15 209 353 386 623 218 333 471 683 569 788 209
223 610 419 1055 516 58 13 108 24 111 24 4 1 17 -7 30 -18z m-3626 -441 c111
-29 240 -72 445 -148 179 -66 568 -228 583 -242 10 -9 328 -992 324 -1001 -1
-3 -96 57 -212 133 -388 258 -728 447 -930 518 -203 70 -566 52 -835 -42 -217
-76 -332 -146 -773 -475 -124 -92 -138 -100 -132 -75 3 15 61 218 128 452
l123 425 319 160 c330 166 481 234 645 292 84 30 103 34 165 29 39 -3 106 -15
150 -26z m75 -784 c138 -25 352 -125 658 -308 162 -97 589 -377 649 -425 16
-13 44 -92 109 -298 48 -154 89 -286 92 -294 3 -9 -12 -4 -39 13 -24 15 -105
58 -179 95 -343 173 -659 261 -943 261 -214 0 -1093 -123 -1471 -206 -251 -56
-403 -105 -698 -227 -60 -25 -108 -44 -108 -42 0 1 52 130 116 286 65 156 128
320 140 364 13 43 27 82 32 86 41 35 508 376 612 446 81 54 222 129 309 163
207 81 533 120 721 86z"/>
</g>
</svg>
